PathFileType	4	(X/Y/Z)	C:/Users/beibeiliu/ov580/test_trc/User2\sequence.37_training_dense_left.trc
DataRate	CameraRate	NumFrames	NumMarkers	Units	OrigDataRate	OrigDataStartFrame	OrigNumFrames
120	120	7	19	mm	120	376	500
Frame#	Time	ThumbCMC			ThumbMCP			ThumbIP			ThumbTip			IndexMCP			IndexPIP			IndexTip			MiddleMCP			MiddlePIP			MiddleTip			RingMCP			RingPIP			RingTip			PinkyMCP			PinkyPIP			PinkyTip			BackHand1			BackHand2			BackHand3	
		X0	Y0	Z0	X1	Y1	Z1	X2	Y2	Z2	X3	Y3	Z3	X4	Y4	Z4	X5	Y5	Z5	X6	Y6	Z6	X7	Y7	Z7	X8	Y8	Z8	X9	Y9	Z9	X10	Y10	Z10	X11	Y11	Z11	X12	Y12	Z12	X13	Y13	Z13	X14	Y14	Z14	X15	Y15	Z15	X16	Y16	Z16	X17	Y17	Z17	X18	Y18	Z18	
375	3.125	-215.106	-38.7288	82.942	-205.452	-27.4804	47.3159	-188.764	-23.0432	15.4471	-162.398	-34.4032	-0.175467	-190.078	-90.0332	21.1391	-174.882	-89.9373	-9.26946	-156.343	-62.8845	-25.4838	-167.007	-98.486	22.3873	-145.323	-82.4258	-7.31543	-136.741	-45.5898	-0.749772	-148.622	-97.5744	33.474	-132.761	-82.7048	7.92552	-127.554	-44.2082	16.8182	-128.983	-92.9418	52.1082	-116.639	-78.5838	27.6117	-116.331	-46.7256	22.4945	-170.444	-95.9112	86.2865	-182.2	-87.9092	119.032	-207.623	-80.3156	92.1186	
376	3.13333	-211.751	-35.7089	81.8821	-202.909	-21.6995	46.633	-184.081	-21.4219	18.5413	-162.57	-26.7633	0.856944	-190.444	-87.4182	16.7616	-176.891	-85.17	-13.993	-158.111	-65.8939	-26.4189	-166.96	-96.6789	20.2876	-148.547	-79.9122	-9.35043	-135.754	-43.7291	-3.45692	-145.9	-96.8813	28.0847	-128.024	-81.9646	8.76515	-127.78	-47.291	11.2349	-132.831	-93.6491	49.077	-115.715	-80.236	26.9011	-116.659	-46.5104	21.0765	-172.845	-93.6208	90.588	-184.231	-86.2496	115.472	-206.635	-77.3982	85.8075	
377	3.14167	-211.371	-27.5548	81.6513	-198.504	-17.8856	48.6995	-181.169	-15.6989	19.7292	-161.999	-20.0226	1.04575	-196.351	-78.7752	13.998	-182.202	-77.3523	-15.0272	-157.9	-61.5051	-28.1361	-172.763	-91.4577	13.4437	-151.537	-78.8083	-10.6083	-131.364	-43.3555	-3.22605	-152.385	-93.45	25.714	-132.711	-81.5777	7.54839	-126.085	-46.7857	11.1893	-136.922	-92.7058	50.3013	-116.799	-81.8307	26.852	-114.259	-50.0807	21.0764	-176.906	-88.9775	86.9995	-182.718	-84.5671	115.677	-208.651	-72.7135	86.9338	
378	3.15	-208.345	-23.2261	79.694	-194.973	-11.2457	48.5109	-179.486	-5.72999	18.0147	-159.092	-15.8381	0.829516	-196.808	-72.8239	12.3437	-182.936	-69.1774	-18.3297	-156.12	-55.7836	-28.7369	-175.649	-86.1829	14.7754	-148.918	-74.2866	-10.8178	-129.962	-42.5984	-6.71265	-155.404	-92.6771	29.6683	-134.371	-81.9324	5.0907	-123.858	-44.9482	10.9317	-138.6	-93.3941	47.3191	-117.984	-80.5148	24.8067	-114.625	-51.8805	18.7399	-177.243	-87.8525	86.4304	-187.087	-84.9832	113.675	-212.329	-66.1292	87.0692	
379	3.15833	-207.262	-14.7117	82.5212	-193.205	-2.03222	52.579	-175.77	-2.45624	24.9556	-156.714	-7.51577	0.131762	-199.341	-62.7031	15.4695	-184.575	-63.8646	-13.86	-157.781	-45.2176	-28.5649	-180.978	-79.857	11.9826	-156.574	-72.7455	-11.7909	-132.673	-41.6217	-9.87489	-162.887	-87.9184	22.1523	-140.845	-81.287	4.43311	-126.634	-49.4797	5.98444	-144.884	-90.616	43.7718	-124.288	-81.4425	22.6534	-111.236	-53.5706	20.9601	-179.865	-84.926	85.7653	-190.924	-80.1328	112.798	-213.821	-57.1817	85.478	
380	3.16667	-202.847	-12.8462	83.8009	-188.151	1.38302	52.9522	-171.751	3.4165	22.7291	-153.995	-8.20513	5.02297	-201.879	-53.7967	10.6742	-183.055	-52.1252	-15.0229	-157.994	-33.4778	-25.2224	-184.889	-72.6884	14.9245	-160.263	-66.2365	-14.0735	-131.459	-34.4426	-8.96958	-166.911	-84.3548	22.9983	-145.283	-74.7417	-0.737414	-126.864	-45.1146	5.30387	-148.086	-89.877	43.4478	-129.292	-80.6757	21.7361	-113.691	-52.6953	20.3873	-185.764	-82.5614	79.4963	-195.648	-74.1868	109.923	-212.833	-54.23	83.5881	
381	3.175	-201.212	-9.82054	86.1654	-185.338	3.60003	55.6451	-169.712	7.11879	23.1926	-151.882	-1.48258	5.29975	-198.989	-46.757	10.04	-184.897	-38.8918	-13.9209	-148.998	-22.6904	-16.4197	-186.304	-67.5624	10.1637	-162.337	-57.2044	-14.9565	-133.471	-32.0519	-7.53047	-170.557	-81.7708	23.5801	-150.491	-71.222	-1.02439	-128.209	-45.26	3.09915	-153.526	-86.2059	44.2943	-131.52	-78.8092	19.3517	-119.565	-50.7863	17.7206	-189.517	-78.9416	80.2052	-197.703	-73.1653	112.97	-214.897	-49.5226	87.6562	
